# xmcd
#
# Track frame offsets:
# 150
# 33004
# 68523
# 102090
# 124526
# 146087
# 153208
# 170721
# 187272
# 194532
# 201495
# 212879
# 246958
# 274898
# 281285
# 296891
# 323907
#
# Disc length: 4396 seconds
#
#
# Revision: 0
# Processed by: cddbd v1.5.2PL0 Copyright (c) Steve Scherf et al.
# Submitted via: FreeRIP 2.95 
#
DISCID=0d112a11
DTITLE=Huszár- és katonaénekek - Tavaszi Hadjárat 2.
DYEAR=1900
DGENRE=
TTITLE0=A szegedi vasútállomáson
TTITLE1=Most nyílik a szelíd rózsa bimbója
TTITLE2=Csillagok, csillagok
TTITLE3=Sírt az anyám
TTITLE4=A gõzösnek kattog a kereke
TTITLE5=Kapum elõtt
TTITLE6=Akkor szép a huszár
TTITLE7=Szállj el madár
TTITLE8=Keresik a nem lelik a
TTITLE9=Beváltam a huszárnak
TTITLE10=A huszárkatona
TTITLE11=Megállj német
TTITLE12=Nincsen a világnak még olyan csárdája
TTITLE13=A pápai sorozóra süt a nap
TTITLE14=Szép a huszár
TTITLE15=Húzd rá cigány
TTITLE16=Magyarország az én hazám
EXTD=
EXTT0=
EXTT1=
EXTT2=
EXTT3=
EXTT4=
EXTT5=
EXTT6=
EXTT7=
EXTT8=
EXTT9=
EXTT10=
EXTT11=
EXTT12=
EXTT13=
EXTT14=
EXTT15=
EXTT16=
PLAYORDER=
